<?xml version="1.0" standalone="no"?>
<!DOCTYPE svg PUBLIC "-//W3C//DTD SVG 20010904//EN"
 "http://www.w3.org/TR/2001/REC-SVG-20010904/DTD/svg10.dtd">
<svg version="1.0" xmlns="http://www.w3.org/2000/svg"
 width="2928.000000pt" height="2928.000000pt" viewBox="0 0 2928.000000 2928.000000"
 preserveAspectRatio="xMidYMid meet">
<metadata>
Created by potrace 1.14, written by Peter Selinger 2001-2017
</metadata>
<g transform="translate(0.000000,2928.000000) scale(0.100000,-0.100000)"
fill="#000000" stroke="none">
<path d="M5080 16475 c0 -33 -4 -45 -15 -45 -11 0 -15 -12 -15 -45 0 -33 -4
-45 -15 -45 -11 0 -15 -12 -15 -50 0 -38 -4 -50 -15 -50 -11 0 -15 -12 -15
-45 0 -33 -4 -45 -15 -45 -11 0 -15 -12 -15 -45 0 -33 -4 -45 -15 -45 -12 0
-15 -13 -15 -60 0 -47 -3 -60 -15 -60 -11 0 -15 -12 -15 -50 0 -43 -3 -50 -20
-50 -17 0 -20 -7 -20 -45 0 -33 -4 -45 -15 -45 -11 0 -15 -12 -15 -45 0 -33
-4 -45 -15 -45 -11 0 -15 -12 -15 -45 0 -33 -4 -45 -15 -45 -11 0 -15 -12 -15
-50 0 -38 -4 -50 -15 -50 -11 0 -15 -12 -15 -45 0 -33 -4 -45 -15 -45 -11 0
-15 -12 -15 -45 0 -33 -4 -45 -15 -45 -11 0 -15 -12 -15 -45 0 -33 -4 -45 -15
-45 -11 0 -15 -12 -15 -45 0 -33 -4 -45 -15 -45 -12 0 -15 -14 -15 -65 0 -51
-3 -65 -15 -65 -11 0 -15 -12 -15 -45 0 -33 -4 -45 -15 -45 -11 0 -15 -12 -15
-45 0 -33 -4 -45 -15 -45 -11 0 -15 -12 -15 -45 0 -33 -4 -45 -15 -45 -11 0
-15 -12 -15 -50 0 -43 -3 -50 -20 -50 -17 0 -20 -7 -20 -45 0 -33 -4 -45 -15
-45 -12 0 -15 -13 -15 -60 0 -47 -3 -60 -15 -60 -10 0 -15 -10 -15 -30 0 -20
-5 -30 -15 -30 -11 0 -15 -12 -15 -45 0 -33 -4 -45 -15 -45 -11 0 -15 -12 -15
-50 0 -38 -4 -50 -15 -50 -12 0 -15 -13 -15 -60 0 -47 -3 -60 -15 -60 -11 0
-15 -12 -15 -45 0 -33 -4 -45 -15 -45 -11 0 -15 -12 -15 -45 0 -33 -4 -45 -15
-45 -11 0 -15 -12 -15 -50 0 -38 -4 -50 -15 -50 -11 0 -15 -12 -15 -45 0 -33
-4 -45 -15 -45 -11 0 -15 -12 -15 -45 0 -33 -4 -45 -15 -45 -12 0 -15 -13 -15
-60 0 -47 -3 -60 -15 -60 -10 0 -15 -10 -15 -30 0 -20 -5 -30 -15 -30 -11 0
-15 -12 -15 -50 0 -43 -3 -50 -20 -50 -17 0 -20 -7 -20 -45 0 -33 -4 -45 -15
-45 -12 0 -15 -13 -15 -60 0 -47 -3 -60 -15 -60 -11 0 -15 -12 -15 -45 0 -33
-4 -45 -15 -45 -11 0 -15 -12 -15 -50 0 -38 -4 -50 -15 -50 -11 0 -15 -12 -15
-45 0 -33 -4 -45 -15 -45 -11 0 -15 -12 -15 -45 0 -33 -4 -45 -15 -45 -11 0
-15 -12 -15 -45 0 -33 -4 -45 -15 -45 -12 0 -15 -14 -15 -65 0 -51 -3 -65 -15
-65 -10 0 -15 -10 -15 -30 0 -20 -5 -30 -15 -30 -11 0 -15 -12 -15 -45 0 -33
-4 -45 -15 -45 -12 0 -15 -13 -15 -60 0 -47 -3 -60 -15 -60 -12 0 -15 -16 -15
-80 0 -64 3 -80 15 -80 12 0 15 -13 15 -60 0 -47 3 -60 15 -60 10 0 15 -10 15
-30 0 -20 5 -30 15 -30 10 0 15 -10 15 -30 0 -20 5 -30 15 -30 11 0 15 -12 15
-45 0 -33 4 -45 15 -45 10 0 15 -10 15 -30 0 -20 5 -30 15 -30 10 0 15 -11 15
-35 0 -24 5 -35 15 -35 8 0 15 -7 15 -15 0 -8 7 -15 15 -15 10 0 15 -10 15
-30 0 -20 5 -30 15 -30 8 0 15 -7 15 -15 0 -8 7 -15 15 -15 8 0 15 -7 15 -15
0 -8 7 -15 15 -15 8 0 15 -7 15 -15 0 -8 9 -15 20 -15 11 0 20 -7 20 -15 0 -8
7 -15 15 -15 8 0 15 -7 15 -15 0 -8 7 -15 15 -15 8 0 15 -7 15 -15 0 -10 10
-15 30 -15 20 0 30 -5 30 -15 0 -10 10 -15 30 -15 20 0 30 -5 30 -15 0 -10 10
-15 30 -15 23 0 30 -4 30 -20 0 -16 7 -20 30 -20 20 0 30 -5 30 -15 0 -10 10
-15 30 -15 20 0 30 -5 30 -15 0 -11 12 -15 50 -15 38 0 50 -4 50 -15 0 -13
331 -15 2915 -15 l2915 0 0 45 c0 33 4 45 15 45 10 0 15 11 15 35 0 28 4 35
20 35 18 0 20 7 20 60 0 47 3 60 15 60 11 0 15 12 15 45 0 33 4 45 15 45 12 0
15 13 15 60 0 47 3 60 15 60 11 0 15 12 15 50 0 38 4 50 15 50 11 0 15 12 15
45 0 33 4 45 15 45 11 0 15 12 15 45 0 33 4 45 15 45 12 0 15 13 15 60 0 47 3
60 15 60 12 0 15 14 15 65 0 51 3 65 15 65 11 0 15 12 15 45 0 33 4 45 15 45
11 0 15 12 15 45 0 33 4 45 15 45 11 0 15 12 15 45 l0 45 -2120 0 c-1878 0
-2120 2 -2120 15 0 8 -7 15 -15 15 -8 0 -15 7 -15 15 0 8 -7 15 -15 15 -8 0
-15 9 -15 20 0 11 -7 20 -15 20 -12 0 -15 18 -15 105 0 87 3 105 15 105 12 0
15 13 15 60 0 47 3 60 15 60 11 0 15 12 15 50 0 38 4 50 15 50 12 0 15 13 15
60 0 47 3 60 15 60 11 0 15 12 15 45 0 33 4 45 15 45 11 0 15 12 15 45 0 33 4
45 15 45 11 0 15 12 15 45 0 38 3 45 20 45 18 0 20 7 20 65 0 51 3 65 15 65
12 0 15 13 15 60 0 47 3 60 15 60 11 0 15 12 15 45 0 33 4 45 15 45 11 0 15
12 15 50 0 38 4 50 15 50 11 0 15 12 15 45 0 33 4 45 15 45 12 0 15 13 15 60
0 47 3 60 15 60 11 0 15 12 15 45 0 33 4 45 15 45 11 0 15 12 15 45 0 33 4 45
15 45 11 0 15 12 15 50 0 38 4 50 15 50 12 0 15 13 15 60 0 47 3 60 15 60 11
0 15 12 15 45 0 33 4 45 15 45 12 0 15 13 15 60 0 47 3 60 15 60 11 0 15 12
15 50 0 43 3 50 20 50 17 0 20 7 20 45 0 33 4 45 15 45 11 0 15 12 15 45 0 33
4 45 15 45 12 0 15 13 15 60 0 47 3 60 15 60 12 0 15 14 15 65 0 51 3 65 15
65 8 0 15 7 15 15 0 13 247 15 2165 15 1918 0 2165 2 2165 15 0 8 7 15 15 15
11 0 15 12 15 45 0 33 4 45 15 45 12 0 15 13 15 60 0 47 3 60 15 60 11 0 15
12 15 50 0 38 4 50 15 50 12 0 15 13 15 60 0 47 3 60 15 60 10 0 15 10 15 30
0 20 5 30 15 30 11 0 15 12 15 45 0 38 3 45 20 45 18 0 20 7 20 65 0 51 3 65
15 65 12 0 15 13 15 60 0 47 3 60 15 60 11 0 15 12 15 45 0 33 4 45 15 45 11
0 15 12 15 45 0 33 4 45 15 45 11 0 15 12 15 45 0 33 4 45 15 45 11 0 15 12
15 50 0 38 4 50 15 50 12 0 15 13 15 60 l0 60 -3395 0 -3395 0 0 -45z"/>
<path d="M12180 16460 c0 -47 -3 -60 -15 -60 -11 0 -15 -12 -15 -50 0 -38 -4
-50 -15 -50 -11 0 -15 -12 -15 -45 0 -38 -3 -45 -20 -45 -17 0 -20 -7 -20 -45
0 -33 -4 -45 -15 -45 -12 0 -15 -13 -15 -60 0 -47 -3 -60 -15 -60 -11 0 -15
-12 -15 -45 0 -33 -4 -45 -15 -45 -12 0 -15 -14 -15 -65 0 -51 -3 -65 -15 -65
-11 0 -15 -12 -15 -45 0 -33 -4 -45 -15 -45 -11 0 -15 -12 -15 -45 0 -33 -4
-45 -15 -45 -11 0 -15 -12 -15 -45 0 -33 -4 -45 -15 -45 -12 0 -15 -14 -15
-65 0 -51 -3 -65 -15 -65 -11 0 -15 -12 -15 -45 0 -33 -4 -45 -15 -45 -12 0
-15 -13 -15 -60 0 -47 -3 -60 -15 -60 -10 0 -15 -10 -15 -30 0 -20 -5 -30 -15
-30 -12 0 -15 -14 -15 -65 0 -51 -3 -65 -15 -65 -11 0 -15 -12 -15 -45 0 -33
-4 -45 -15 -45 -12 0 -15 -13 -15 -60 0 -53 -2 -60 -20 -60 -17 0 -20 -7 -20
-45 0 -33 -4 -45 -15 -45 -11 0 -15 -12 -15 -50 0 -38 -4 -50 -15 -50 -11 0
-15 -12 -15 -45 0 -33 -4 -45 -15 -45 -12 0 -15 -13 -15 -60 0 -47 -3 -60 -15
-60 -12 0 -15 -13 -15 -60 0 -47 -3 -60 -15 -60 -11 0 -15 -12 -15 -50 0 -38
-4 -50 -15 -50 -11 0 -15 -12 -15 -45 0 -33 -4 -45 -15 -45 -11 0 -15 -12 -15
-45 0 -33 -4 -45 -15 -45 -12 0 -15 -13 -15 -60 0 -47 -3 -60 -15 -60 -11 0
-15 -12 -15 -50 0 -38 -4 -50 -15 -50 -11 0 -15 -12 -15 -45 0 -33 -4 -45 -15
-45 -11 0 -15 -12 -15 -45 0 -33 -4 -45 -15 -45 -12 0 -15 -13 -15 -60 0 -53
-2 -60 -20 -60 -17 0 -20 -7 -20 -50 0 -38 -4 -50 -15 -50 -12 0 -15 -13 -15
-60 0 -47 -3 -60 -15 -60 -11 0 -15 -12 -15 -45 0 -33 -4 -45 -15 -45 -11 0
-15 -12 -15 -45 0 -33 -4 -45 -15 -45 -11 0 -15 -12 -15 -45 0 -33 -4 -45 -15
-45 -12 0 -15 -14 -15 -65 0 -51 -3 -65 -15 -65 -11 0 -15 -12 -15 -45 0 -33
-4 -45 -15 -45 -12 0 -15 -13 -15 -60 0 -47 -3 -60 -15 -60 -10 0 -15 -10 -15
-30 0 -20 -5 -30 -15 -30 -12 0 -15 -14 -15 -65 0 -51 -3 -65 -15 -65 -11 0
-15 -12 -15 -45 0 -33 -4 -45 -15 -45 -12 0 -15 -13 -15 -60 0 -47 -3 -60 -15
-60 -11 0 -15 -12 -15 -45 0 -33 -4 -45 -15 -45 -11 0 -15 -12 -15 -50 0 -43
-3 -50 -20 -50 -17 0 -20 -7 -20 -45 0 -33 -4 -45 -15 -45 -12 0 -15 -13 -15
-60 0 -47 -3 -60 -15 -60 -12 0 -15 -13 -15 -60 0 -47 -3 -60 -15 -60 -11 0
-15 -12 -15 -50 0 -38 -4 -50 -15 -50 -11 0 -15 -12 -15 -45 0 -33 -4 -45 -15
-45 -11 0 -15 -12 -15 -45 0 -33 -4 -45 -15 -45 -12 0 -15 -13 -15 -60 0 -47
-3 -60 -15 -60 -11 0 -15 -12 -15 -50 0 -38 -4 -50 -15 -50 -10 0 -15 -10 -15
-30 l0 -30 1200 0 c1060 0 1200 2 1200 15 0 8 7 15 15 15 11 0 15 12 15 50 0
38 4 50 15 50 10 0 15 10 15 30 0 20 5 30 15 30 12 0 15 13 15 60 0 47 3 60
15 60 11 0 15 12 15 45 0 33 4 45 15 45 11 0 15 12 15 45 0 33 4 45 15 45 11
0 15 12 15 50 0 38 4 50 15 50 11 0 15 12 15 45 0 33 4 45 15 45 11 0 15 12
15 45 0 33 4 45 15 45 11 0 15 12 15 45 0 33 4 45 15 45 11 0 15 12 15 50 0
38 4 50 15 50 11 0 15 12 15 45 0 33 4 45 15 45 11 0 15 12 15 45 0 33 4 45
15 45 11 0 15 12 15 45 0 38 3 45 20 45 18 0 20 7 20 60 0 47 3 60 15 60 11 0
15 12 15 50 0 38 4 50 15 50 10 0 15 10 15 30 0 20 5 30 15 30 11 0 15 12 15
45 0 33 4 45 15 45 11 0 15 12 15 45 0 33 4 45 15 45 12 0 15 14 15 65 0 51 3
65 15 65 11 0 15 12 15 45 0 33 4 45 15 45 11 0 15 12 15 45 0 33 4 45 15 45
10 0 15 10 15 30 0 20 5 30 15 30 12 0 15 13 15 60 0 47 3 60 15 60 11 0 15
12 15 50 0 38 4 50 15 50 11 0 15 12 15 45 0 33 4 45 15 45 11 0 15 12 15 45
0 38 3 45 20 45 17 0 20 7 20 45 0 33 4 45 15 45 11 0 15 12 15 50 0 38 4 50
15 50 11 0 15 12 15 45 0 33 4 45 15 45 11 0 15 12 15 45 0 33 4 45 15 45 11
0 15 12 15 45 0 33 4 45 15 45 11 0 15 12 15 45 0 33 4 45 15 45 11 0 15 12
15 50 0 38 4 50 15 50 11 0 15 12 15 45 0 33 4 45 15 45 12 0 15 13 15 60 0
47 3 60 15 60 10 0 15 10 15 30 0 20 5 30 15 30 11 0 15 12 15 45 0 33 4 45
15 45 11 0 15 12 15 50 0 38 4 50 15 50 12 0 15 13 15 60 0 47 3 60 15 60 11
0 15 12 15 45 0 38 3 45 20 45 17 0 20 7 20 45 0 33 4 45 15 45 10 0 15 11 15
35 0 24 5 35 15 35 12 0 15 13 15 60 0 47 3 60 15 60 10 0 15 10 15 30 l0 30
2150 0 2150 0 0 30 c0 20 5 30 15 30 11 0 15 12 15 45 0 33 4 45 15 45 11 0
15 12 15 50 0 38 4 50 15 50 10 0 15 10 15 30 0 20 5 30 15 30 11 0 15 12 15
45 0 33 4 45 15 45 12 0 15 13 15 60 0 47 3 60 15 60 11 0 15 12 15 45 0 33 4
45 15 45 11 0 15 12 15 50 0 38 4 50 15 50 10 0 15 10 15 30 0 23 4 30 20 30
17 0 20 7 20 45 0 33 4 45 15 45 12 0 15 13 15 60 0 47 3 60 15 60 11 0 15 12
15 50 0 38 4 50 15 50 11 0 15 12 15 45 0 33 4 45 15 45 10 0 15 10 15 30 0
20 5 30 15 30 8 0 15 7 15 15 0 13 -389 15 -3440 15 l-3440 0 0 -60z"/>
<path d="M19240 16505 c0 -8 -7 -15 -15 -15 -12 0 -15 -13 -15 -60 0 -47 -3
-60 -15 -60 -10 0 -15 -11 -15 -35 0 -24 -5 -35 -15 -35 -11 0 -15 -12 -15
-45 0 -33 -4 -45 -15 -45 -11 0 -15 -12 -15 -45 0 -33 -4 -45 -15 -45 -12 0
-15 -13 -15 -60 0 -47 -3 -60 -15 -60 -11 0 -15 -12 -15 -45 0 -33 -4 -45 -15
-45 -10 0 -15 -11 -15 -35 0 -24 -5 -35 -15 -35 -11 0 -15 -12 -15 -45 0 -33
-4 -45 -15 -45 -12 0 -15 -13 -15 -60 0 -47 -3 -60 -15 -60 -11 0 -15 -12 -15
-45 0 -33 -4 -45 -15 -45 -11 0 -15 -12 -15 -50 0 -43 -3 -50 -20 -50 -17 0
-20 -7 -20 -45 0 -33 -4 -45 -15 -45 -11 0 -15 -12 -15 -45 0 -33 -4 -45 -15
-45 -11 0 -15 -12 -15 -45 0 -33 -4 -45 -15 -45 -11 0 -15 -12 -15 -45 0 -33
-4 -45 -15 -45 -11 0 -15 -12 -15 -50 0 -38 -4 -50 -15 -50 -11 0 -15 -12 -15
-45 0 -33 -4 -45 -15 -45 -11 0 -15 -12 -15 -45 0 -33 -4 -45 -15 -45 -11 0
-15 -12 -15 -45 0 -33 -4 -45 -15 -45 -12 0 -15 -14 -15 -65 0 -51 -3 -65 -15
-65 -11 0 -15 -12 -15 -45 0 -33 -4 -45 -15 -45 -10 0 -15 -10 -15 -30 0 -20
-5 -30 -15 -30 -11 0 -15 -12 -15 -45 0 -33 -4 -45 -15 -45 -11 0 -15 -12 -15
-45 0 -33 -4 -45 -15 -45 -12 0 -15 -14 -15 -65 0 -58 -2 -65 -20 -65 -17 0
-20 -7 -20 -45 0 -33 -4 -45 -15 -45 -10 0 -15 -10 -15 -30 0 -20 -5 -30 -15
-30 -11 0 -15 -12 -15 -45 0 -33 -4 -45 -15 -45 -12 0 -15 -14 -15 -65 0 -51
-3 -65 -15 -65 -11 0 -15 -12 -15 -45 0 -33 -4 -45 -15 -45 -11 0 -15 -12 -15
-45 0 -33 -4 -45 -15 -45 -11 0 -15 -12 -15 -45 0 -33 -4 -45 -15 -45 -11 0
-15 -12 -15 -45 0 -33 -4 -45 -15 -45 -11 0 -15 -12 -15 -50 0 -38 -4 -50 -15
-50 -11 0 -15 -12 -15 -45 0 -33 -4 -45 -15 -45 -11 0 -15 -12 -15 -45 0 -33
-4 -45 -15 -45 -11 0 -15 -12 -15 -45 0 -33 -4 -45 -15 -45 -11 0 -15 -12 -15
-50 0 -38 -4 -50 -15 -50 -11 0 -15 -12 -15 -45 0 -38 -3 -45 -20 -45 -18 0
-20 -7 -20 -60 0 -47 -3 -60 -15 -60 -11 0 -15 -12 -15 -45 0 -33 -4 -45 -15
-45 -10 0 -15 -10 -15 -30 0 -20 -5 -30 -15 -30 -11 0 -15 -12 -15 -50 0 -38
-4 -50 -15 -50 -11 0 -15 -12 -15 -45 0 -33 -4 -45 -15 -45 -12 0 -15 -15 -15
-75 0 -60 -3 -75 -15 -75 -12 0 -15 -17 -15 -95 0 -78 3 -95 15 -95 12 0 15
-13 15 -60 0 -47 3 -60 15 -60 10 0 15 -10 15 -30 0 -20 5 -30 15 -30 10 0 15
-10 15 -30 0 -20 5 -30 15 -30 10 0 15 -10 15 -30 0 -20 5 -30 15 -30 10 0 15
-10 15 -30 0 -20 5 -30 15 -30 10 0 15 -11 15 -35 0 -28 4 -35 20 -35 16 0 20
-7 20 -30 0 -20 5 -30 15 -30 8 0 15 -7 15 -15 0 -8 7 -15 15 -15 8 0 15 -7
15 -15 0 -8 7 -15 15 -15 8 0 15 -7 15 -15 0 -8 7 -15 15 -15 8 0 15 -7 15
-15 0 -8 7 -15 15 -15 8 0 15 -7 15 -15 0 -8 7 -15 15 -15 8 0 15 -7 15 -15 0
-8 7 -15 15 -15 8 0 15 -7 15 -15 0 -10 10 -15 30 -15 20 0 30 -5 30 -15 0 -8
7 -15 15 -15 8 0 15 -7 15 -15 0 -10 10 -15 30 -15 23 0 30 -4 30 -20 0 -16 7
-20 35 -20 24 0 35 -5 35 -15 0 -11 12 -15 45 -15 33 0 45 -4 45 -15 0 -11 12
-15 45 -15 33 0 45 -4 45 -15 0 -13 331 -15 2920 -15 l2920 0 0 65 c0 51 3 65
15 65 11 0 15 12 15 45 0 33 4 45 15 45 11 0 15 12 15 45 0 33 4 45 15 45 11
0 15 12 15 45 0 33 4 45 15 45 12 0 15 14 15 65 0 51 3 65 15 65 11 0 15 12
15 45 0 33 4 45 15 45 12 0 15 13 15 60 0 47 3 60 15 60 11 0 15 12 15 45 0
33 4 45 15 45 11 0 15 12 15 45 0 33 4 45 15 45 11 0 15 12 15 50 0 38 4 50
15 50 13 0 15 22 15 135 l0 135 -2085 0 c-1847 0 -2085 2 -2085 15 0 10 -11
15 -35 15 -33 0 -35 2 -35 35 0 24 -5 35 -15 35 -10 0 -15 10 -15 30 0 20 -5
30 -15 30 -12 0 -15 13 -15 60 0 47 3 60 15 60 11 0 15 12 15 45 0 33 4 45 15
45 11 0 15 12 15 45 0 38 3 45 20 45 17 0 20 7 20 50 0 38 4 50 15 50 12 0 15
13 15 60 0 47 3 60 15 60 11 0 15 12 15 45 0 33 4 45 15 45 12 0 15 13 15 60
0 47 3 60 15 60 10 0 15 11 15 35 0 24 5 35 15 35 12 0 15 13 15 60 0 47 3 60
15 60 11 0 15 12 15 45 0 33 4 45 15 45 12 0 15 13 15 60 0 47 3 60 15 60 11
0 15 12 15 50 0 38 4 50 15 50 11 0 15 12 15 45 0 33 4 45 15 45 11 0 15 12
15 45 0 33 4 45 15 45 12 0 15 13 15 60 0 47 3 60 15 60 12 0 15 14 15 65 0
51 3 65 15 65 11 0 15 12 15 45 0 38 3 45 20 45 17 0 20 7 20 45 0 33 4 45 15
45 11 0 15 12 15 45 0 33 4 45 15 45 11 0 15 12 15 45 0 33 4 45 15 45 12 0
15 14 15 65 0 51 3 65 15 65 11 0 15 12 15 45 0 33 4 45 15 45 11 0 15 12 15
45 0 33 4 45 15 45 11 0 15 12 15 45 0 33 4 45 15 45 12 0 15 14 15 65 0 51 3
65 15 65 8 0 15 7 15 15 0 13 203 15 1765 15 l1765 0 0 675 0 675 -2780 0
c-2464 0 -2780 -2 -2780 -15z"/>
<path d="M14760 14615 c0 -24 -5 -35 -15 -35 -10 0 -15 -10 -15 -30 0 -20 -5
-30 -15 -30 -11 0 -15 -12 -15 -45 0 -33 -4 -45 -15 -45 -11 0 -15 -12 -15
-45 0 -38 -3 -45 -20 -45 -17 0 -20 -7 -20 -45 0 -33 -4 -45 -15 -45 -12 0
-15 -14 -15 -65 0 -51 -3 -65 -15 -65 -10 0 -15 -10 -15 -30 0 -20 -5 -30 -15
-30 -11 0 -15 -12 -15 -45 0 -33 -4 -45 -15 -45 -11 0 -15 -12 -15 -45 0 -33
-4 -45 -15 -45 -11 0 -15 -12 -15 -45 0 -33 -4 -45 -15 -45 -12 0 -15 -14 -15
-65 0 -51 -3 -65 -15 -65 -10 0 -15 -10 -15 -30 0 -20 -5 -30 -15 -30 -11 0
-15 -12 -15 -45 0 -33 -4 -45 -15 -45 -11 0 -15 -12 -15 -45 0 -33 -4 -45 -15
-45 -12 0 -15 -14 -15 -65 l0 -65 1720 0 1720 0 0 30 c0 20 5 30 15 30 11 0
15 12 15 50 0 38 4 50 15 50 11 0 15 12 15 45 0 33 4 45 15 45 11 0 15 12 15
45 0 33 4 45 15 45 11 0 15 12 15 45 0 33 4 45 15 45 11 0 15 12 15 50 0 38 4
50 15 50 10 0 15 10 15 30 0 20 5 30 15 30 11 0 15 12 15 45 0 33 4 45 15 45
11 0 15 12 15 45 0 38 3 45 20 45 17 0 20 7 20 45 0 33 4 45 15 45 11 0 15 12
15 50 0 38 4 50 15 50 10 0 15 10 15 30 0 20 5 30 15 30 11 0 15 12 15 45 0
33 4 45 15 45 11 0 15 12 15 45 0 33 4 45 15 45 12 0 15 16 15 80 l0 80 -1720
0 -1720 0 0 -35z"/>
<path d="M7510 14490 c0 -20 -5 -30 -15 -30 -11 0 -15 -12 -15 -45 0 -33 -4
-45 -15 -45 -10 0 -15 -10 -15 -30 0 -23 -4 -30 -20 -30 -17 0 -20 -7 -20 -45
0 -33 -4 -45 -15 -45 -11 0 -15 -12 -15 -50 0 -38 -4 -50 -15 -50 -11 0 -15
-12 -15 -45 0 -33 -4 -45 -15 -45 -10 0 -15 -10 -15 -30 0 -20 -5 -30 -15 -30
-11 0 -15 -12 -15 -45 0 -33 -4 -45 -15 -45 -11 0 -15 -12 -15 -45 0 -33 -4
-45 -15 -45 -11 0 -15 -12 -15 -50 0 -38 -4 -50 -15 -50 -11 0 -15 -12 -15
-45 0 -33 -4 -45 -15 -45 -10 0 -15 -10 -15 -30 0 -20 -5 -30 -15 -30 -11 0
-15 -12 -15 -45 0 -33 -4 -45 -15 -45 -12 0 -15 -14 -15 -65 l0 -65 1705 0
1705 0 0 35 c0 24 5 35 15 35 10 0 15 10 15 30 0 20 5 30 15 30 11 0 15 12 15
45 0 33 4 45 15 45 11 0 15 12 15 45 0 33 4 45 15 45 11 0 15 12 15 45 0 33 4
45 15 45 10 0 15 11 15 35 0 24 5 35 15 35 11 0 15 12 15 45 0 33 4 45 15 45
10 0 15 10 15 30 0 20 5 30 15 30 11 0 15 12 15 45 0 33 4 45 15 45 11 0 15
12 15 45 0 33 4 45 15 45 11 0 15 12 15 50 0 43 3 50 20 50 16 0 20 7 20 30 0
20 5 30 15 30 11 0 15 12 15 45 0 33 4 45 15 45 11 0 15 12 15 45 0 33 4 45
15 45 10 0 15 10 15 30 l0 30 -1720 0 -1720 0 0 -30z"/>
</g>
</svg>
